# xmcd
#
# Track frame offsets: 
#        150
#        16702
#        31594
#        44329
#        57912
#        72551
#        87793
#        100356
#        114258
#        130649
#        143764
#        156074
#
# Disc length: 2212 seconds
#
# Revision: 0
# Processed by: cddbd v1.5.2PL0 Copyright (c) Steve Scherf et al.
# Submitted via: ExactAudioCopy v1.3
#
DISCID=8f08a20c
DTITLE=Eilen Jewell - Gypsy
DYEAR=2019
DGENRE=Americana
TTITLE0=Crawl
TTITLE1=Miles To Go
TTITLE2=You Cared Enough to Lie
TTITLE3=79 Cents (The Meow Song)
TTITLE4=Beat the Drum
TTITLE5=Gypsy
TTITLE6=These Blues
TTITLE7=Working Hard For Your Love
TTITLE8=Who Else But You
TTITLE9=Witness
TTITLE10=Hard Times 
TTITLE11=Fear
EXTD=
EXTT0=
EXTT1=
EXTT2=
EXTT3=
EXTT4=
EXTT5=
EXTT6=
EXTT7=
EXTT8=
EXTT9=
EXTT10=
EXTT11=
PLAYORDER=
